<svg id="SvgjsSvg1011" width="288" height="288" xmlns="http://www.w3.org/2000/svg" version="1.1" xmlns:xlink="http://www.w3.org/1999/xlink" xmlns:svgjs="http://svgjs.com/svgjs"><defs id="SvgjsDefs1012"></defs><g id="SvgjsG1013"><svg xmlns="http://www.w3.org/2000/svg" enable-background="new 0 0 297.001 297.001" viewBox="0 0 297.001 297.001" width="288" height="288"><path d="M241.348 85.53c-2.184-4.45-5.971-7.782-10.662-9.384L94.056 29.498c-9.686-3.303-20.251 1.884-23.558 11.567l-5.573 16.324 171.753 58.638 5.574-16.323C243.854 95.014 243.533 89.979 241.348 85.53zM148.5 14.472l49.205 16.799-6.157 18.036 12.069 4.12 8.218-24.07c1.138-3.333-.642-6.957-3.974-8.095l-61.274-20.92c-1.599-.547-3.353-.434-4.871.31-1.518.745-2.679 2.064-3.225 3.663l-8.218 24.071 12.07 4.122L148.5 14.472zM183.237 275.016c0 5.099-4.133 9.232-9.232 9.232s-9.232-4.133-9.232-9.232V104.954l-42.338-14.455H60.256c-.926 0-1.857.152-2.701.531-2.53 1.137-3.953 3.644-3.799 6.226l11.562 193.749c.201 3.367 2.991 5.996 6.365 5.996h138.741c3.374 0 6.164-2.629 6.365-5.996l9.843-164.931-43.395-14.816V275.016zM117.333 275.016c0 5.099-4.133 9.232-9.232 9.232s-9.232-4.133-9.232-9.232V103.252h18.464V275.016z" fill="#ffffff" class="color000 svgShape"></path></svg></g></svg>