<svg id="SvgjsSvg1011" width="288" height="288" xmlns="http://www.w3.org/2000/svg" version="1.1" xmlns:xlink="http://www.w3.org/1999/xlink" xmlns:svgjs="http://svgjs.com/svgjs"><defs id="SvgjsDefs1012"></defs><g id="SvgjsG1013"><svg xmlns="http://www.w3.org/2000/svg" enable-background="new 0 0 512 512" viewBox="0 0 512 512" width="288" height="288"><path d="M505.516,112.392L403.793,10.67c-8.247-8.247-21.382-8.714-30.041-0.9L67.002,286.668
			c-4.457,4.023-6.827,9.459-6.979,15.462c-0.153,6.002,2.404,11.564,6.649,15.809l3.379,3.379l-33.426,62.289
			c-3.616,6.759-3.575,14.968,0.093,21.397L6.416,435.306c-4.616,4.616-6.933,11.05-6.319,17.548
			c0.482,5.119,2.744,9.856,6.319,13.432c0.965,0.965,2.026,1.844,3.172,2.624l51.633,35.112c8.698,5.915,20.37,4.814,27.808-2.624
			l22.007-22.007c6.452,3.747,14.731,3.816,21.54,0.172l62.289-33.426l3.379,3.379c4.245,4.245,9.839,6.771,15.841,6.617
			c6.002-0.153,11.51-2.595,15.533-7.052l276.797-306.648C514.231,133.774,513.763,120.639,505.516,112.392z M70.868,457.598
			l-14.752-10.032l11.228-11.228l12.392,12.392L70.868,457.598z M126.234,433.267l-43.316-43.316l19.503-36.262l60.075,60.075
			L126.234,433.267z M212.924,402.232l-98.97-98.97L376.677,66.168l73.341,73.341L212.924,402.232z" fill="#ffffff" class="color000 svgShape"></path></svg></g></svg>