<svg id="SvgjsSvg1001" width="288" height="288" xmlns="http://www.w3.org/2000/svg" version="1.1" xmlns:xlink="http://www.w3.org/1999/xlink" xmlns:svgjs="http://svgjs.com/svgjs"><defs id="SvgjsDefs1002"></defs><g id="SvgjsG1008"><svg xmlns="http://www.w3.org/2000/svg" enable-background="new 0 0 100 100" viewBox="0 0 100 100" width="288" height="288"><path d="M42 91.9c-4 5.4-10.6 6.7-15.4 6.8-5.7.2-10.6-1.2-13-2.2 6.2-2.6 8.5-6.4 10.9-10.4 1.3-2.2 2.6-4.4 4.7-6.6 1.6-1.7 3.8-2.7 6.2-2.7 2.4-.1 4.6.8 6.3 2.4C45.7 82.9 44.6 88.4 42 91.9zM84.4 7.4L45.8 78.9c-.5-.7-1-1.4-1.7-2-2.3-2.2-5.3-3.4-8.5-3.3L79 4.3c.8-1.4 2.6-1.9 4.1-1.1l.3.2C84.7 4.2 85.2 6 84.4 7.4z" fill="#ffffff" class="color000 svgShape"></path></svg></g></svg>