<svg id="SvgjsSvg1022" width="288" height="288" xmlns="http://www.w3.org/2000/svg" version="1.1" xmlns:xlink="http://www.w3.org/1999/xlink" xmlns:svgjs="http://svgjs.com/svgjs"><defs id="SvgjsDefs1023"></defs><g id="SvgjsG1024"><svg xmlns="http://www.w3.org/2000/svg" width="288" height="288" viewBox="0 0 256 256"><path fill="none" stroke="#ffffff" stroke-linecap="round" stroke-linejoin="round" stroke-width="16" d="M 16.000736,48.000563 A 31.999783,31.999783 0 0 1 48.000519,16.000782" class="colorStroke000 svgStroke"></path><path fill="none" stroke="#ffffff" stroke-linecap="round" stroke-linejoin="round" stroke-width="16" d="m -239.99926,48.000563 a 31.999783,31.999783 0 0 1 31.99978,-31.999781" transform="scale(-1 1)" class="colorStroke000 svgStroke"></path><path fill="none" stroke="#ffffff" stroke-linecap="round" stroke-linejoin="round" stroke-width="16" d="m -239.99926,-207.99947 a 31.999783,31.999783 0 0 1 31.99978,-31.99978" transform="scale(-1)" class="colorStroke000 svgStroke"></path><path fill="none" stroke="#ffffff" stroke-linecap="round" stroke-linejoin="round" stroke-width="16" d="m 16.000736,-207.99947 a 31.999783,31.999783 0 0 1 31.999783,-31.99978" transform="scale(1 -1)" class="colorStroke000 svgStroke"></path><path fill="none" stroke="#ffffff" stroke-linecap="round" stroke-linejoin="round" stroke-width="16" d="M239.99923 143.99987v31.9998M239.99923 80.000312V112.00011M16.000747 143.99991v31.99976M16.000751 80.000312V112.00011M112.00008 16.000744H80.000284M175.99964 16.000748H143.99988M112.00008 239.99922H80.000284M175.99964 239.99922H143.99988M96.000202 127.99999H159.99976M128 96.000192V159.99979" class="colorStroke000 svgStroke"></path></svg></g></svg>