<svg id="SvgjsSvg1036" width="288" height="288" xmlns="http://www.w3.org/2000/svg" version="1.1" xmlns:xlink="http://www.w3.org/1999/xlink" xmlns:svgjs="http://svgjs.com/svgjs"><defs id="SvgjsDefs1037"></defs><g id="SvgjsG1038"><svg xmlns="http://www.w3.org/2000/svg" enable-background="new 0 0 512 512" viewBox="0 0 512 512" width="288" height="288"><path d="M511.997 255.863c-.028-10.457-.759-20.89-2.218-31.055-1.902-13.361-14.312-22.747-27.575-20.724-13.312 1.877-22.577 14.239-20.699 27.551 1.146 7.973 1.707 16.189 1.731 24.405 0 .015.001.031.001.046-.051 94.206-76.447 170.572-170.665 170.572-90.748 0-164.951-70.847-170.34-160.241l31.196 31.196c9.521 9.521 24.958 9.521 34.48 0s9.521-24.958 0-34.48l-73.143-73.143c-9.521-9.521-24.958-9.521-34.48 0L7.141 263.132c-9.521 9.521-9.521 24.958 0 34.48 9.521 9.521 24.959 9.521 34.48 0l31.753-31.753c5.163 116.6 101.325 209.561 219.197 209.561 121.18 0 219.429-98.248 219.429-219.429C512 255.948 511.997 255.906 511.997 255.863zM399.65 123.066c11.093 8.972 21.041 19.285 29.598 30.671 4.779 6.363 12.117 9.752 19.505 9.752 5.096 0 10.216-1.585 14.629-4.901 10.752-8.07 12.922-23.357 4.852-34.133-10.947-14.604-23.698-27.819-37.912-39.302-10.533-8.46-25.844-6.851-34.328 3.633C387.557 99.27 389.191 114.606 399.65 123.066zM133.191 140.913c4.681 4.389 10.654 6.558 16.628 6.558 6.51 0 13.019-2.609 17.822-7.778 9.728-10.435 20.748-19.627 32.67-27.307 11.337-7.266 14.604-22.382 7.314-33.695-7.266-11.288-22.382-14.58-33.694-7.314-15.336 9.874-29.452 21.675-41.96 35.084C122.78 116.312 123.341 131.745 133.191 140.913zM280.33 85.763c14.287-1 28.696-.244 42.545 2.243 1.463.268 2.901.39 4.34.39 11.581 0 21.845-8.265 23.966-20.065 2.389-13.239-6.412-25.917-19.675-28.306-17.798-3.218-36.547-4.169-54.565-2.901-13.434.951-23.552 12.605-22.626 26.014C255.242 76.571 267.115 86.641 280.33 85.763z" fill="#ffffff" class="color000 svgShape"></path></svg></g></svg>