<svg id="SvgjsSvg1001" width="288" height="288" xmlns="http://www.w3.org/2000/svg" version="1.1" xmlns:xlink="http://www.w3.org/1999/xlink" xmlns:svgjs="http://svgjs.com/svgjs"><defs id="SvgjsDefs1002"></defs><g id="SvgjsG1008"><svg xmlns="http://www.w3.org/2000/svg" enable-background="new 0 0 204.376 204.376" viewBox="0 0 204.376 204.376" width="288" height="288"><path d="M110.397,47.736V0H33.13c-2.485,0-4.5,2.015-4.5,4.5v195.376c0,2.485,2.015,4.5,4.5,4.5h138.117c2.485,0,4.5-2.015,4.5-4.5
	V61.35h-51.744C116.501,61.35,110.397,55.243,110.397,47.736z M108.499,168.626h-46.5v-10h46.5V168.626z M143.499,143.626h-81.5v-10
	h81.5V143.626z M143.499,118.627h-81.5v-10h81.5V118.627z M143.499,93.627h-81.5v-10h81.5V93.627z M120.397,47.736v-37.34
	L164.2,51.35h-40.197C122.014,51.35,120.397,49.729,120.397,47.736z" fill="#ffffff" class="color000 svgShape"></path></svg></g></svg>