<?xml version="1.0"?><svg width="455.148" height="454.788" xmlns="http://www.w3.org/2000/svg">
 <linearGradient id="XMLID_1_" x1="0.00001" x2="0.99916" y1="0.5" y2="0.5">
  <stop offset="0" stop-color="#E5E5E5"/>
  <stop offset="0.1696" stop-color="#E2E2E2"/>
  <stop offset="0.3059" stop-color="#D8D8D8"/>
  <stop offset="0.4306" stop-color="#C7C7C7"/>
  <stop offset="0.5484" stop-color="#B0B0B0"/>
  <stop offset="0.6614" stop-color="#919191"/>
  <stop offset="0.7707" stop-color="#6B6B6B"/>
  <stop offset="0.8772" stop-color="#3E3E3E"/>
  <stop offset="0.9788" stop-color="#0C0C0C"/>
  <stop offset="1" stop-color="#000000"/>
 </linearGradient>
 <linearGradient id="XMLID_2_" x1="0.99999" x2="0.00085" y1="0.5" y2="0.5">
  <stop offset="0" stop-color="#E5E5E5"/>
  <stop offset="0.2675" stop-color="#E2E2E2"/>
  <stop offset="0.4824" stop-color="#D8D8D8"/>
  <stop offset="0.679" stop-color="#C7C7C7"/>
  <stop offset="0.8635" stop-color="#B0B0B0"/>
  <stop offset="1" stop-color="#999999"/>
 </linearGradient>
 <linearGradient id="XMLID_3_" x1="0.5" x2="0.5" y1="1" y2="0.00139">
  <stop offset="0" stop-color="#E5E5E5"/>
  <stop offset="0.2675" stop-color="#E2E2E2"/>
  <stop offset="0.4824" stop-color="#D8D8D8"/>
  <stop offset="0.679" stop-color="#C7C7C7"/>
  <stop offset="0.8635" stop-color="#B0B0B0"/>
  <stop offset="1" stop-color="#999999"/>
 </linearGradient>
 <linearGradient id="XMLID_4_" x1="0.5" x2="0.5" y1="0.00001" y2="0.99999">
  <stop offset="0" stop-color="#E5E5E5"/>
  <stop offset="0.1696" stop-color="#E2E2E2"/>
  <stop offset="0.3059" stop-color="#D8D8D8"/>
  <stop offset="0.4306" stop-color="#C7C7C7"/>
  <stop offset="0.5484" stop-color="#B0B0B0"/>
  <stop offset="0.6614" stop-color="#919191"/>
  <stop offset="0.7707" stop-color="#6B6B6B"/>
  <stop offset="0.8772" stop-color="#3E3E3E"/>
  <stop offset="0.9788" stop-color="#0C0C0C"/>
  <stop offset="1" stop-color="#000000"/>
 </linearGradient>
 <g>
  <title>Layer 1</title>
 </g>
 <g>
  <title>Layer 2</title>
  <g id="svg_1">
   <path clip-rule="evenodd" d="m191.296997,382.428986l0,-145.943985c-8.460999,9.684006 -16.381012,17.783005 -23.903992,24.443008c-7.561005,6.552002 -13.356018,12.023987 -21.132996,15.156006c-8.063019,3.131989 -19.295013,6.119995 -26.063019,3.27597c-6.768982,-3.096985 -11.087982,-8.855988 -14.075989,-21.167999c-2.951996,-12.527985 -3.528015,-37.008987 -3.815002,-52.63298c-0.468994,-15.731003 -3.492004,-32.399002 1.618988,-40.139999c5.14801,-7.70401 23.112,-9.144012 28.764008,-5.436005c5.472992,3.744003 3.312988,16.020004 4.356995,27.684006c0.936005,11.699997 1.475006,25.343994 1.619019,41.759995c5.938995,-6.119995 12.132996,-12.132004 18.972992,-18.432007c6.839996,-6.335999 12.778992,-15.155991 21.707001,-18.972c8.819992,-3.815994 19.908005,-5.039993 30.923996,-3.815994c10.979996,1.223999 22.824005,10.619995 34.164001,10.835999c11.231995,-0.035995 22.608017,-7.164001 32.580002,-10.296005c9.721008,-3.095993 15.660004,4.104004 26.027985,-8.136002c10.404022,-12.455994 25.84903,-47.663986 35.784027,-65.627991c9.720001,-18.108002 14.579987,-35.279999 22.787994,-41.796005c8.171997,-6.371994 22.5,-2.736 26.062988,3.276001c3.348999,5.832001 4.356018,10.944 -5.436005,32.004005c-9.971985,21.203987 -39.779999,72.756004 -53.171997,93.851997c-13.427979,20.809006 -22.104004,31.067993 -26.567993,30.925003l0,149.184006c-37.044006,0.000977 -74.123993,0.000977 -111.203003,0.000977l0,0z" fill="#000000" fill-rule="evenodd" id="svg_16"/>
   <path clip-rule="evenodd" d="m250.960007,89.397003c23.945999,0 43.37999,19.449997 43.37999,43.416c0,23.964996 -19.43399,43.416 -43.37999,43.416c-23.944992,0 -43.37999,-19.451004 -43.37999,-43.416c-0.000015,-23.966003 19.434982,-43.416 43.37999,-43.416" fill="#000000" fill-rule="evenodd" id="svg_17"/>
   <path clip-rule="evenodd" d="m78.97699,171.397003l0,7.595993l71.062988,0l0,-7.595993l-71.062988,0z" fill="#000000" fill-rule="evenodd" id="svg_18"/>
   <path clip-rule="evenodd" d="m152.955994,149.688995c-4.895996,0 -8.892029,3.960022 -8.892029,8.856003c0,10.727997 0,21.455994 0,32.18399c0,4.895996 3.996033,8.891998 8.892029,8.891998c1.29599,0 2.627991,0 3.959991,0c4.895996,0 8.855988,-3.996002 8.855988,-8.891998c0,-10.727997 0,-21.455994 0,-32.18399c0,-4.895996 -3.959991,-8.856003 -8.855988,-8.856003c-1.332001,0 -2.664001,0 -3.959991,0z" fill="#000000" fill-rule="evenodd" id="svg_19"/>
   <path clip-rule="evenodd" d="m81.893005,149.688995c-4.895996,0 -8.893005,3.960022 -8.893005,8.856003c0,10.727997 0,21.455994 0,32.18399c0,4.895996 3.996002,8.891998 8.893005,8.891998c1.294983,0 2.626984,0 3.959015,0c4.895996,0 8.855988,-3.996002 8.855988,-8.891998c0,-10.727997 0,-21.455994 0,-32.18399c0,-4.895996 -3.959991,-8.856003 -8.855988,-8.856003c-1.332031,0 -2.664032,0 -3.959015,0z" fill="#000000" fill-rule="evenodd" id="svg_20"/>
   <path clip-rule="evenodd" d="m335.835999,70.488998l-3.02301,6.984001l65.268005,28.116005l3.024017,-6.984009l-65.269012,-28.116005l0,0.000008z" fill="#000000" fill-rule="evenodd" id="svg_21"/>
   <path clip-rule="evenodd" d="m412.335999,79.813004c-4.5,-1.908005 -9.720001,0.143997 -11.664001,4.643997c-4.212006,9.863998 -8.459991,19.692001 -12.708008,29.556c-1.942993,4.5 0.14502,9.720001 4.64502,11.664001c1.187988,0.503998 2.411987,1.043991 3.635986,1.548004c4.5,1.944 9.720001,-0.144012 11.627991,-4.644012c4.248016,-9.827988 8.496002,-19.691986 12.744019,-29.520004c1.944,-4.5 -0.144012,-9.719986 -4.644012,-11.663986c-1.188995,-0.540001 -2.411987,-1.044014 -3.636993,-1.584z" fill="#000000" fill-rule="evenodd" id="svg_22"/>
   <path clip-rule="evenodd" d="m347.067993,51.733002c-4.5,-1.944 -9.720001,0.108002 -11.664001,4.608002c-4.212006,9.863998 -8.459991,19.691986 -12.708008,29.556c-1.944,4.5 0.144012,9.719986 4.644012,11.664001c1.187988,0.503998 2.411987,1.043991 3.636993,1.547989c4.5,1.944 9.720001,-0.143997 11.627991,-4.607994c4.248016,-9.863998 8.496002,-19.727997 12.744019,-29.556c1.942993,-4.5 -0.14502,-9.720001 -4.64502,-11.664001c-1.186981,-0.503998 -2.411987,-1.043999 -3.635986,-1.547997z" fill="#000000" fill-rule="evenodd" id="svg_23"/>
  </g>
 </g>
</svg>