<?xml version="1.0" encoding="iso-8859-1"?>
<!-- Generator: Adobe Illustrator 18.1.1, SVG Export Plug-In . SVG Version: 6.00 Build 0)  -->
<svg version="1.1" id="Capa_1" xmlns="http://www.w3.org/2000/svg" xmlns:xlink="http://www.w3.org/1999/xlink" x="0px" y="0px"
	 viewBox="0 0 61.188 61.188" style="enable-background:new 0 0 61.188 61.188;" xml:space="preserve">
<g>
	<g>
		<path style="fill:#010002;" d="M56.526,34.058c-2.779,0.402-7.291,1.14-9.615-0.901c-2.648-2.321-1.959-7.663-1.758-10.726
			c0.072-1.083-0.256-1.916-0.807-2.506c-0.757-1.734-2.367-3.057-4.839-3.057c-7.168,0-14.336,0-21.504,0
			c-4.881,0-6.47,5.135-4.742,8.428c0.3,5.388,0.599,10.775,0.898,16.163c0.212,3.805,6.146,3.825,5.932,0
			c-0.25-4.488-0.499-8.977-0.748-13.465c6.109,0,12.217,0,18.326,0c0.229,3.839,1.205,7.604,3.996,10.406
			c4.324,4.345,11.351,3.605,16.83,2.808C63.216,40.519,61.202,33.376,56.526,34.058z"/>
		<circle style="fill:#010002;" cx="5.487" cy="22.478" r="5.487"/>
	</g>
</g>
<g>
</g>
<g>
</g>
<g>
</g>
<g>
</g>
<g>
</g>
<g>
</g>
<g>
</g>
<g>
</g>
<g>
</g>
<g>
</g>
<g>
</g>
<g>
</g>
<g>
</g>
<g>
</g>
<g>
</g>
</svg>
