<?xml version="1.0" encoding="utf-8"?>
<!-- Uploaded to SVGRepo https://www.svgrepo.com -->
<svg version="1.1" id="_x31__1_" xmlns="http://www.w3.org/2000/svg" xmlns:xlink="http://www.w3.org/1999/xlink" x="0px" y="0px"
	 viewBox="0 0 128 128" style="enable-background:new 0 0 128 128;" xml:space="preserve">
<g>
	<rect x="0.1" y="122.2" width="127.7" height="5.8"/>
	<circle cx="114.3" cy="83.6" r="10"/>
	<path d="M14.3,118.2l45.1-25.9c0.8,0.4,1.5,0.8,2.5,1.1c6.9,1.6,14.1,2.5,21.5,2.5c0.5,0,1.8,0,1.9,0c2.8,0,5.6-0.7,8-2v7.4
		c0,1.1,0.4,2.2,1.3,3.1l14.1,14.1c1.7,1.7,4.5,1.7,6.2,0c1.5-1.9,1.5-4.6-0.2-6.3l-12.9-12.9l0.1-18.8c0-3.2-2.5-5.6-5.6-5.6H61.8
		c-1.5-0.1-3.2,0.5-4.3,1.7l-52,32.8c-2.5,2.5-2.5,6.4,0,8.8C8,120.6,10.7,120,14.3,118.2z"/>
</g>
</svg>
