<?xml version="1.0" encoding="iso-8859-1"?>
<!-- Generator: Adobe Illustrator 17.1.0, SVG Export Plug-In . SVG Version: 6.00 Build 0)  -->
<!DOCTYPE svg PUBLIC "-//W3C//DTD SVG 1.1//EN" "http://www.w3.org/Graphics/SVG/1.1/DTD/svg11.dtd">
<svg version="1.1" id="Capa_1" xmlns="http://www.w3.org/2000/svg" xmlns:xlink="http://www.w3.org/1999/xlink" x="0px" y="0px"
	 viewBox="0 0 332.921 332.921" style="enable-background:new 0 0 332.921 332.921;" xml:space="preserve">
<path d="M200.669,37.87c0.015-4.962,4.041-8.974,8.999-8.974c0.01,0,0.019,0,0.027,0l26.141,0.077
	c4.971,0.015,8.988,4.056,8.974,9.026c-0.015,4.962-4.041,8.974-8.999,8.974c-0.01,0-0.019,0-0.027,0l-26.141-0.077
	C204.672,46.882,200.654,42.841,200.669,37.87z M71.342,69.121c0-18.86,15.343-34.204,34.203-34.204
	c18.861,0,34.205,15.344,34.205,34.204s-15.344,34.204-34.205,34.204C86.685,103.325,71.342,87.981,71.342,69.121z M89.342,69.121
	c0,8.935,7.269,16.204,16.203,16.204c8.936,0,16.205-7.27,16.205-16.204s-7.27-16.204-16.205-16.204
	C96.61,52.917,89.342,60.187,89.342,69.121z M93.386,231.209c-4.707-1.6-9.817,0.927-11.413,5.635l-28.421,83.867
	c-0.379,0.995-0.587,2.076-0.587,3.205c0,2.255,0.829,4.316,2.199,5.896c0.673,0.778,1.486,1.448,2.417,1.967
	c0.748,0.418,1.561,0.731,2.421,0.923c0.657,0.148,1.315,0.22,1.967,0.22c0.094,0,0.188-0.002,0.281-0.005h21.198
	c4.971,0,9-4.029,9-9s-4.029-9-9-9h-8.927l24.5-72.295C100.616,237.913,98.093,232.804,93.386,231.209z M227.079,89.441
	c-3.357,3.665-3.109,9.358,0.556,12.716c1.728,1.583,3.905,2.364,6.078,2.364c2.435,0,4.863-0.982,6.638-2.92l17.659-19.273
	c3.357-3.665,3.109-9.358-0.556-12.716s-9.359-3.109-12.716,0.556L227.079,89.441z M316.322,314.916H205.17c-4.971,0-9,4.029-9,9
	s4.029,9,9,9h111.152c4.971,0,9-4.029,9-9S321.293,314.916,316.322,314.916z M323.818,57.868c-26.944,0-48.864-21.922-48.864-48.868
	c0-4.971-4.029-9-9-9s-9,4.029-9,9c0,36.871,29.995,66.868,66.864,66.868c4.971,0,9-4.029,9-9S328.789,57.868,323.818,57.868z
	 M288.17,130.327c4.941,0,8.964-3.988,8.999-8.937l0.184-26.141c0.035-4.971-3.967-9.028-8.937-9.063c-0.021,0-0.043,0-0.064,0
	c-4.941,0-8.964,3.988-8.999,8.937l-0.184,26.141c-0.034,4.971,3.967,9.028,8.937,9.063
	C288.127,130.327,288.148,130.327,288.17,130.327z M149.126,314.916h-13.552l-18.831-148.182c-0.626-4.931-5.122-8.424-10.063-7.793
	c-4.931,0.626-8.42,5.132-7.793,10.063l19.798,155.786c0.332,3.442,2.602,6.317,5.706,7.521c1.014,0.394,2.11,0.608,3.245,0.608
	c0.077,0,0.153-0.001,0.23-0.003h21.261c4.971,0,9-4.029,9-9S154.097,314.916,149.126,314.916z M200.755,198.44l-40.856-45.214
	c-12.665-14.016-26.436-27.913-43.24-30.473c-3.244-0.493-12.19-0.499-15.89-0.481c-0.089,0.001-0.177,0.002-0.265,0.006
	c-0.045,0-0.089,0-0.134,0c-6.137,0-10.231-0.163-11.136-0.283c-10.953-1.668-22.569-13.648-32.597-24.747L15.781,52.035
	c-3.333-3.688-9.024-3.977-12.712-0.644s-3.976,9.023-0.644,12.712l40.855,45.213c12.665,14.016,26.436,27.913,43.241,30.474
	c3.25,0.495,12.196,0.498,15.89,0.482c0.089-0.001,0.178-0.002,0.266-0.006c0.048,0,0.095,0,0.143,0
	c6.135,0,10.224,0.162,11.126,0.282c10.951,1.668,22.568,13.648,32.597,24.746l40.855,45.214c1.777,1.966,4.224,2.966,6.681,2.966
	c2.15,0,4.31-0.767,6.031-2.322C203.798,207.819,204.087,202.129,200.755,198.44z"/>
<g>
</g>
<g>
</g>
<g>
</g>
<g>
</g>
<g>
</g>
<g>
</g>
<g>
</g>
<g>
</g>
<g>
</g>
<g>
</g>
<g>
</g>
<g>
</g>
<g>
</g>
<g>
</g>
<g>
</g>
</svg>
