<svg id="SvgjsSvg1011" width="288" height="288" xmlns="http://www.w3.org/2000/svg" version="1.1" xmlns:xlink="http://www.w3.org/1999/xlink" xmlns:svgjs="http://svgjs.com/svgjs"><defs id="SvgjsDefs1012"></defs><g id="SvgjsG1013"><svg xmlns="http://www.w3.org/2000/svg" enable-background="new 0 0 385.331 385.331" viewBox="0 0 385.331 385.331" width="288" height="288"><path d="M264.943 156.665h108.273c6.833 0 11.934-5.39 11.934-12.211 0-6.833-5.101-11.85-11.934-11.838h-96.242V36.181c0-6.833-5.197-12.03-12.03-12.03s-12.03 5.197-12.03 12.03v108.273c0 .036.012.06.012.084 0 .036-.012.06-.012.096C252.913 151.347 258.23 156.677 264.943 156.665zM120.291 24.247c-6.821 0-11.838 5.113-11.838 11.934v96.242H12.03c-6.833 0-12.03 5.197-12.03 12.03 0 6.833 5.197 12.03 12.03 12.03h108.273c.036 0 .06-.012.084-.012.036 0 .06.012.096.012 6.713 0 12.03-5.317 12.03-12.03V36.181C132.514 29.36 127.124 24.259 120.291 24.247zM120.387 228.666H12.115c-6.833.012-11.934 5.39-11.934 12.223 0 6.833 5.101 11.85 11.934 11.838h96.242v96.423c0 6.833 5.197 12.03 12.03 12.03 6.833 0 12.03-5.197 12.03-12.03V240.877c0-.036-.012-.06-.012-.084 0-.036.012-.06.012-.096C132.418 233.983 127.1 228.666 120.387 228.666zM373.3 228.666H265.028c-.036 0-.06.012-.084.012-.036 0-.06-.012-.096-.012-6.713 0-12.03 5.317-12.03 12.03v108.273c0 6.833 5.39 11.922 12.223 11.934 6.821.012 11.838-5.101 11.838-11.922v-96.242H373.3c6.833 0 12.03-5.197 12.03-12.03S380.134 228.678 373.3 228.666z" fill="#ffffff" class="color000 svgShape"></path></svg></g></svg>